<svg width="287" height="135" viewBox="0 0 287 135" fill="none" xmlns="http://www.w3.org/2000/svg">
<circle cx="72.5" cy="72.5" r="62.5" fill="#CE7AF6" style="fill:#CE7AF6;fill:color(display-p3 0.8078 0.4784 0.9647);fill-opacity:1;"/>
<rect width="125" height="125" rx="62.5" fill="white" style="fill:white;fill:white;fill-opacity:1;"/>
<rect width="125" height="125" rx="62.5" fill="#EDEDED" style="fill:#EDEDED;fill:color(display-p3 0.9277 0.9277 0.9277);fill-opacity:1;"/>
<path d="M158 42.832V44.64H153.344V47.504H156.912V49.28H153.344V54H151.104V42.832H158ZM160.724 44.08C160.33 44.08 159.999 43.9573 159.732 43.712C159.476 43.456 159.348 43.1413 159.348 42.768C159.348 42.3947 159.476 42.0853 159.732 41.84C159.999 41.584 160.33 41.456 160.724 41.456C161.119 41.456 161.444 41.584 161.7 41.84C161.967 42.0853 162.1 42.3947 162.1 42.768C162.1 43.1413 161.967 43.456 161.7 43.712C161.444 43.9573 161.119 44.08 160.724 44.08ZM161.828 45.136V54H159.588V45.136H161.828ZM166.282 46.512C166.57 46.0427 166.943 45.6747 167.402 45.408C167.871 45.1413 168.404 45.008 169.002 45.008V47.36H168.41C167.706 47.36 167.172 47.5253 166.81 47.856C166.458 48.1867 166.282 48.7627 166.282 49.584V54H164.042V45.136H166.282V46.512ZM173.902 54.144C173.177 54.144 172.526 54.016 171.95 53.76C171.374 53.4933 170.916 53.136 170.574 52.688C170.244 52.24 170.062 51.744 170.03 51.2H172.286C172.329 51.5413 172.494 51.824 172.782 52.048C173.081 52.272 173.449 52.384 173.886 52.384C174.313 52.384 174.644 52.2987 174.878 52.128C175.124 51.9573 175.246 51.7387 175.246 51.472C175.246 51.184 175.097 50.9707 174.798 50.832C174.51 50.6827 174.046 50.5227 173.406 50.352C172.745 50.192 172.201 50.0267 171.774 49.856C171.358 49.6853 170.996 49.424 170.686 49.072C170.388 48.72 170.238 48.2453 170.238 47.648C170.238 47.1573 170.377 46.7093 170.654 46.304C170.942 45.8987 171.348 45.5787 171.87 45.344C172.404 45.1093 173.028 44.992 173.742 44.992C174.798 44.992 175.641 45.2587 176.27 45.792C176.9 46.3147 177.246 47.024 177.31 47.92H175.166C175.134 47.568 174.985 47.2907 174.718 47.088C174.462 46.8747 174.116 46.768 173.678 46.768C173.273 46.768 172.958 46.8427 172.734 46.992C172.521 47.1413 172.414 47.3493 172.414 47.616C172.414 47.9147 172.564 48.144 172.862 48.304C173.161 48.4533 173.625 48.608 174.254 48.768C174.894 48.928 175.422 49.0933 175.838 49.264C176.254 49.4347 176.612 49.7013 176.91 50.064C177.22 50.416 177.38 50.8853 177.39 51.472C177.39 51.984 177.246 52.4427 176.958 52.848C176.681 53.2533 176.276 53.5733 175.742 53.808C175.22 54.032 174.606 54.144 173.902 54.144ZM181.837 46.976V51.264C181.837 51.5627 181.906 51.7813 182.045 51.92C182.194 52.048 182.44 52.112 182.781 52.112H183.821V54H182.413C180.525 54 179.581 53.0827 179.581 51.248V46.976H178.525V45.136H179.581V42.944H181.837V45.136H183.821V46.976H181.837ZM197.837 54L196.621 52.8C195.586 53.728 194.322 54.192 192.829 54.192C192.007 54.192 191.282 54.0533 190.653 53.776C190.034 53.488 189.554 53.088 189.213 52.576C188.871 52.0533 188.701 51.4507 188.701 50.768C188.701 50.032 188.909 49.3707 189.325 48.784C189.741 48.1973 190.354 47.7227 191.165 47.36C190.877 47.008 190.669 46.672 190.541 46.352C190.413 46.0213 190.349 45.6693 190.349 45.296C190.349 44.784 190.482 44.3253 190.749 43.92C191.015 43.504 191.394 43.1787 191.885 42.944C192.386 42.7093 192.967 42.592 193.629 42.592C194.301 42.592 194.877 42.72 195.357 42.976C195.837 43.232 196.194 43.5733 196.429 44C196.663 44.4267 196.765 44.9013 196.733 45.424H194.557C194.567 45.072 194.482 44.8053 194.301 44.624C194.119 44.432 193.874 44.336 193.565 44.336C193.266 44.336 193.015 44.4267 192.813 44.608C192.621 44.7787 192.525 45.0027 192.525 45.28C192.525 45.5467 192.605 45.8133 192.765 46.08C192.925 46.336 193.186 46.656 193.549 47.04L196.365 49.824C196.386 49.8027 196.402 49.7813 196.413 49.76C196.423 49.7387 196.434 49.7173 196.445 49.696L197.357 48.176H199.693L198.573 50.144C198.359 50.56 198.13 50.9547 197.885 51.328L200.589 54H197.837ZM192.893 52.336C193.767 52.336 194.541 52.0267 195.213 51.408L192.461 48.688C191.426 49.1467 190.909 49.7973 190.909 50.64C190.909 51.12 191.09 51.5253 191.453 51.856C191.815 52.176 192.295 52.336 192.893 52.336ZM207.75 52.224H211.43V54H205.51V42.832H207.75V52.224ZM212.278 49.536C212.278 48.64 212.454 47.8453 212.806 47.152C213.169 46.4587 213.654 45.9253 214.262 45.552C214.881 45.1787 215.569 44.992 216.326 44.992C216.987 44.992 217.563 45.1253 218.054 45.392C218.555 45.6587 218.955 45.9947 219.254 46.4V45.136H221.51V54H219.254V52.704C218.966 53.12 218.566 53.4667 218.054 53.744C217.553 54.0107 216.971 54.144 216.31 54.144C215.563 54.144 214.881 53.952 214.262 53.568C213.654 53.184 213.169 52.6453 212.806 51.952C212.454 51.248 212.278 50.4427 212.278 49.536ZM219.254 49.568C219.254 49.024 219.147 48.56 218.934 48.176C218.721 47.7813 218.433 47.4827 218.07 47.28C217.707 47.0667 217.318 46.96 216.902 46.96C216.486 46.96 216.102 47.0613 215.75 47.264C215.398 47.4667 215.11 47.7653 214.886 48.16C214.673 48.544 214.566 49.0027 214.566 49.536C214.566 50.0693 214.673 50.5387 214.886 50.944C215.11 51.3387 215.398 51.6427 215.75 51.856C216.113 52.0693 216.497 52.176 216.902 52.176C217.318 52.176 217.707 52.0747 218.07 51.872C218.433 51.6587 218.721 51.36 218.934 50.976C219.147 50.5813 219.254 50.112 219.254 49.568ZM227.09 54.144C226.364 54.144 225.714 54.016 225.138 53.76C224.562 53.4933 224.103 53.136 223.762 52.688C223.431 52.24 223.25 51.744 223.218 51.2H225.474C225.516 51.5413 225.682 51.824 225.97 52.048C226.268 52.272 226.636 52.384 227.074 52.384C227.5 52.384 227.831 52.2987 228.066 52.128C228.311 51.9573 228.434 51.7387 228.434 51.472C228.434 51.184 228.284 50.9707 227.986 50.832C227.698 50.6827 227.234 50.5227 226.594 50.352C225.932 50.192 225.388 50.0267 224.962 49.856C224.546 49.6853 224.183 49.424 223.874 49.072C223.575 48.72 223.426 48.2453 223.426 47.648C223.426 47.1573 223.564 46.7093 223.842 46.304C224.13 45.8987 224.535 45.5787 225.058 45.344C225.591 45.1093 226.215 44.992 226.93 44.992C227.986 44.992 228.828 45.2587 229.458 45.792C230.087 46.3147 230.434 47.024 230.498 47.92H228.354C228.322 47.568 228.172 47.2907 227.906 47.088C227.65 46.8747 227.303 46.768 226.866 46.768C226.46 46.768 226.146 46.8427 225.922 46.992C225.708 47.1413 225.602 47.3493 225.602 47.616C225.602 47.9147 225.751 48.144 226.05 48.304C226.348 48.4533 226.812 48.608 227.442 48.768C228.082 48.928 228.61 49.0933 229.026 49.264C229.442 49.4347 229.799 49.7013 230.098 50.064C230.407 50.416 230.567 50.8853 230.578 51.472C230.578 51.984 230.434 52.4427 230.146 52.848C229.868 53.2533 229.463 53.5733 228.93 53.808C228.407 54.032 227.794 54.144 227.09 54.144ZM235.025 46.976V51.264C235.025 51.5627 235.094 51.7813 235.233 51.92C235.382 52.048 235.627 52.112 235.969 52.112H237.009V54H235.601C233.713 54 232.769 53.0827 232.769 51.248V46.976H231.713V45.136H232.769V42.944H235.025V45.136H237.009V46.976H235.025ZM248.172 54H245.932L240.86 46.336V54H238.62V42.816H240.86L245.932 50.496V42.816H248.172V54ZM249.809 49.536C249.809 48.64 249.985 47.8453 250.337 47.152C250.7 46.4587 251.185 45.9253 251.793 45.552C252.412 45.1787 253.1 44.992 253.857 44.992C254.519 44.992 255.095 45.1253 255.585 45.392C256.087 45.6587 256.487 45.9947 256.785 46.4V45.136H259.041V54H256.785V52.704C256.497 53.12 256.097 53.4667 255.585 53.744C255.084 54.0107 254.503 54.144 253.841 54.144C253.095 54.144 252.412 53.952 251.793 53.568C251.185 53.184 250.7 52.6453 250.337 51.952C249.985 51.248 249.809 50.4427 249.809 49.536ZM256.785 49.568C256.785 49.024 256.679 48.56 256.465 48.176C256.252 47.7813 255.964 47.4827 255.601 47.28C255.239 47.0667 254.849 46.96 254.433 46.96C254.017 46.96 253.633 47.0613 253.281 47.264C252.929 47.4667 252.641 47.7653 252.417 48.16C252.204 48.544 252.097 49.0027 252.097 49.536C252.097 50.0693 252.204 50.5387 252.417 50.944C252.641 51.3387 252.929 51.6427 253.281 51.856C253.644 52.0693 254.028 52.176 254.433 52.176C254.849 52.176 255.239 52.0747 255.601 51.872C255.964 51.6587 256.252 51.36 256.465 50.976C256.679 50.5813 256.785 50.112 256.785 49.568ZM272.237 45.008C273.325 45.008 274.2 45.344 274.861 46.016C275.533 46.6773 275.869 47.6053 275.869 48.8V54H273.629V49.104C273.629 48.4107 273.453 47.8827 273.101 47.52C272.749 47.1467 272.269 46.96 271.661 46.96C271.053 46.96 270.568 47.1467 270.205 47.52C269.853 47.8827 269.677 48.4107 269.677 49.104V54H267.437V49.104C267.437 48.4107 267.261 47.8827 266.909 47.52C266.557 47.1467 266.077 46.96 265.469 46.96C264.85 46.96 264.36 47.1467 263.997 47.52C263.645 47.8827 263.469 48.4107 263.469 49.104V54H261.229V45.136H263.469V46.208C263.757 45.8347 264.125 45.5413 264.573 45.328C265.032 45.1147 265.533 45.008 266.077 45.008C266.77 45.008 267.389 45.1573 267.933 45.456C268.477 45.744 268.898 46.16 269.197 46.704C269.485 46.192 269.901 45.7813 270.445 45.472C271 45.1627 271.597 45.008 272.237 45.008ZM286.235 49.376C286.235 49.696 286.213 49.984 286.171 50.24H279.691C279.744 50.88 279.968 51.3813 280.363 51.744C280.757 52.1067 281.243 52.288 281.819 52.288C282.651 52.288 283.243 51.9307 283.595 51.216H286.011C285.755 52.0693 285.264 52.7733 284.539 53.328C283.813 53.872 282.923 54.144 281.867 54.144C281.013 54.144 280.245 53.9573 279.563 53.584C278.891 53.2 278.363 52.6613 277.979 51.968C277.605 51.2747 277.419 50.4747 277.419 49.568C277.419 48.6507 277.605 47.8453 277.979 47.152C278.352 46.4587 278.875 45.9253 279.547 45.552C280.219 45.1787 280.992 44.992 281.867 44.992C282.709 44.992 283.461 45.1733 284.123 45.536C284.795 45.8987 285.312 46.416 285.675 47.088C286.048 47.7493 286.235 48.512 286.235 49.376ZM283.915 48.736C283.904 48.16 283.696 47.7013 283.291 47.36C282.885 47.008 282.389 46.832 281.803 46.832C281.248 46.832 280.779 47.0027 280.395 47.344C280.021 47.6747 279.792 48.1387 279.707 48.736H283.915Z" fill="#EEF5FF" style="fill:#EEF5FF;fill:color(display-p3 0.9333 0.9608 1.0000);fill-opacity:1;"/>
<path d="M156.594 65.242V66.278H152.352V69.568H155.796V70.604H152.352V75H151.078V65.242H156.594ZM164.937 67.328V75H163.663V73.866C163.42 74.258 163.079 74.566 162.641 74.79C162.211 75.0047 161.735 75.112 161.213 75.112C160.615 75.112 160.079 74.9907 159.603 74.748C159.127 74.496 158.749 74.1227 158.469 73.628C158.198 73.1333 158.063 72.5313 158.063 71.822V67.328H159.323V71.654C159.323 72.41 159.514 72.9933 159.897 73.404C160.279 73.8053 160.802 74.006 161.465 74.006C162.146 74.006 162.683 73.796 163.075 73.376C163.467 72.956 163.663 72.3447 163.663 71.542V67.328H164.937ZM170.826 67.188C171.759 67.188 172.515 67.4727 173.094 68.042C173.672 68.602 173.962 69.414 173.962 70.478V75H172.702V70.66C172.702 69.8947 172.51 69.3113 172.128 68.91C171.745 68.4993 171.222 68.294 170.56 68.294C169.888 68.294 169.351 68.504 168.95 68.924C168.558 69.344 168.362 69.9553 168.362 70.758V75H167.088V67.328H168.362V68.42C168.614 68.028 168.954 67.7247 169.384 67.51C169.822 67.2953 170.303 67.188 170.826 67.188ZM175.567 71.15C175.567 70.3567 175.726 69.666 176.043 69.078C176.36 68.4807 176.799 68.0187 177.359 67.692C177.928 67.3653 178.577 67.202 179.305 67.202C180.248 67.202 181.022 67.4307 181.629 67.888C182.245 68.3453 182.651 68.98 182.847 69.792H181.475C181.344 69.3253 181.088 68.9567 180.705 68.686C180.332 68.4153 179.865 68.28 179.305 68.28C178.577 68.28 177.989 68.532 177.541 69.036C177.093 69.5307 176.869 70.2353 176.869 71.15C176.869 72.074 177.093 72.788 177.541 73.292C177.989 73.796 178.577 74.048 179.305 74.048C179.865 74.048 180.332 73.9173 180.705 73.656C181.078 73.3947 181.335 73.0213 181.475 72.536H182.847C182.642 73.32 182.231 73.95 181.615 74.426C180.999 74.8927 180.229 75.126 179.305 75.126C178.577 75.126 177.928 74.9627 177.359 74.636C176.799 74.3093 176.36 73.8473 176.043 73.25C175.726 72.6527 175.567 71.9527 175.567 71.15ZM186.101 68.378V72.9C186.101 73.2733 186.18 73.5393 186.339 73.698C186.497 73.8473 186.773 73.922 187.165 73.922H188.103V75H186.955C186.245 75 185.713 74.8367 185.359 74.51C185.004 74.1833 184.827 73.6467 184.827 72.9V68.378H183.833V67.328H184.827V65.396H186.101V67.328H188.103V68.378H186.101ZM190.304 66.082C190.062 66.082 189.856 65.998 189.688 65.83C189.52 65.662 189.436 65.4567 189.436 65.214C189.436 64.9713 189.52 64.766 189.688 64.598C189.856 64.43 190.062 64.346 190.304 64.346C190.538 64.346 190.734 64.43 190.892 64.598C191.06 64.766 191.144 64.9713 191.144 65.214C191.144 65.4567 191.06 65.662 190.892 65.83C190.734 65.998 190.538 66.082 190.304 66.082ZM190.92 67.328V75H189.646V67.328H190.92ZM196.438 75.126C195.719 75.126 195.066 74.9627 194.478 74.636C193.899 74.3093 193.442 73.8473 193.106 73.25C192.779 72.6433 192.616 71.9433 192.616 71.15C192.616 70.366 192.784 69.6753 193.12 69.078C193.465 68.4713 193.932 68.0093 194.52 67.692C195.108 67.3653 195.766 67.202 196.494 67.202C197.222 67.202 197.88 67.3653 198.468 67.692C199.056 68.0093 199.518 68.4667 199.854 69.064C200.199 69.6613 200.372 70.3567 200.372 71.15C200.372 71.9433 200.194 72.6433 199.84 73.25C199.494 73.8473 199.023 74.3093 198.426 74.636C197.828 74.9627 197.166 75.126 196.438 75.126ZM196.438 74.006C196.895 74.006 197.324 73.8987 197.726 73.684C198.127 73.4693 198.449 73.1473 198.692 72.718C198.944 72.2887 199.07 71.766 199.07 71.15C199.07 70.534 198.948 70.0113 198.706 69.582C198.463 69.1527 198.146 68.8353 197.754 68.63C197.362 68.4153 196.937 68.308 196.48 68.308C196.013 68.308 195.584 68.4153 195.192 68.63C194.809 68.8353 194.501 69.1527 194.268 69.582C194.034 70.0113 193.918 70.534 193.918 71.15C193.918 71.7753 194.03 72.3027 194.254 72.732C194.487 73.1613 194.795 73.4833 195.178 73.698C195.56 73.9033 195.98 74.006 196.438 74.006ZM205.785 67.188C206.718 67.188 207.474 67.4727 208.053 68.042C208.631 68.602 208.921 69.414 208.921 70.478V75H207.661V70.66C207.661 69.8947 207.469 69.3113 207.087 68.91C206.704 68.4993 206.181 68.294 205.519 68.294C204.847 68.294 204.31 68.504 203.909 68.924C203.517 69.344 203.321 69.9553 203.321 70.758V75H202.047V67.328H203.321V68.42C203.573 68.028 203.913 67.7247 204.343 67.51C204.781 67.2953 205.262 67.188 205.785 67.188Z" fill="#6170FD" style="fill:#6170FD;fill:color(display-p3 0.3804 0.4392 0.9922);fill-opacity:1;"/>
</svg>
