<svg width="188" height="32" viewBox="0 0 188 32" fill="none" xmlns="http://www.w3.org/2000/svg">
<path d="M28.714 2.9391C28.6456 3.00556 28.5808 3.07567 28.5199 3.14911L16.8207 15.3191C16.6303 15.4596 16.4477 15.6106 16.2737 15.7712H16.2066C14.9588 17.1456 13.3343 18.1153 11.5393 18.5572C9.74421 18.9991 7.8595 18.8933 6.12415 18.2532C4.38881 17.6132 2.88102 16.4677 1.79206 14.9621C0.70309 13.4566 0.0819968 11.6587 0.00757176 9.79657C-0.0668532 7.93444 0.408745 6.09198 1.37402 4.50287C2.3393 2.91377 3.75078 1.64962 5.42941 0.870769C7.10805 0.0919203 8.97822 -0.166533 10.8027 0.128192C12.6272 0.422918 14.3238 1.25754 15.6773 2.5262C15.7973 2.6579 15.9279 2.78605 16.0584 2.90351C16.0683 2.9171 16.0802 2.9291 16.0937 2.9391C17.8145 4.53452 20.0665 5.41991 22.4039 5.41991C24.7412 5.41991 26.9933 4.53452 28.714 2.9391Z" fill="#6170FD" style="fill:#6170FD;fill:color(display-p3 0.3804 0.4392 0.9922);fill-opacity:1;"/>
<path d="M44.8001 9.41735C44.8001 11.1136 44.3453 12.7783 43.484 14.2352C42.6227 15.6921 41.3869 16.8871 39.9074 17.6936C38.4279 18.5001 36.7597 18.8881 35.0794 18.8166C33.3991 18.7451 31.7692 18.2168 30.3623 17.2875C29.7124 16.8599 29.1194 16.3503 28.5977 15.7711H28.5342C28.2179 15.4842 27.8791 15.2236 27.5213 14.9916C25.9201 13.9276 24.0328 13.3872 22.1162 13.4438C20.1996 13.5005 18.3469 14.1516 16.8103 15.3084L28.5095 3.13835C28.5704 3.0649 28.6352 2.9948 28.7036 2.92834C28.753 2.86782 28.8094 2.81087 28.8659 2.75392L28.9683 2.65425C30.2844 1.36686 31.9476 0.499253 33.7499 0.159834C35.5522 -0.179584 37.4137 0.0242496 39.1018 0.745856C40.7898 1.46746 42.2296 2.67484 43.2412 4.21711C44.2528 5.75938 44.7913 7.56814 44.7895 9.41735H44.8001Z" fill="#5B16D5" style="fill:#5B16D5;fill:color(display-p3 0.3569 0.0863 0.8353);fill-opacity:1;"/>
<path d="M41.3757 16.5078L29.4965 28.8522L29.4718 28.8273C28.6249 29.7928 27.5901 30.5724 26.4319 31.1176C25.2737 31.6628 24.0166 31.962 22.7389 31.9966C21.4612 32.0312 20.1901 31.8005 19.0045 31.3188C17.8189 30.8371 16.7442 30.1146 15.847 29.1963C14.9499 28.278 14.2496 27.1835 13.7895 25.9808C13.3294 24.778 13.1195 23.4926 13.1726 22.2046C13.2258 20.9165 13.541 19.6533 14.0986 18.4932C14.6561 17.3332 15.4443 16.3012 16.4139 15.4612C16.588 15.3006 16.7706 15.1497 16.961 15.0092C18.4975 13.8524 20.3503 13.2014 22.2669 13.1447C24.1835 13.088 26.0708 13.6284 27.672 14.6924C28.0298 14.9244 28.3685 15.1851 28.6848 15.4719H28.7484C29.2701 16.0511 29.8631 16.5607 30.5129 16.9883C32.1457 18.0674 34.0732 18.6022 36.0234 18.5173C37.9737 18.4323 39.8483 17.7319 41.3828 16.5149L41.3757 16.5078Z" fill="#CE7AF6" style="fill:#CE7AF6;fill:color(display-p3 0.8078 0.4784 0.9647);fill-opacity:1;"/>
<path d="M60.8 10.2477H66.5536L72.1605 24.7793L77.8408 10.2477H83.2278L74.909 31.1731H69.3021L60.8 10.2477Z" fill="#EEF5FF" style="fill:#EEF5FF;fill:color(display-p3 0.9333 0.9608 1.0000);fill-opacity:1;"/>
<path d="M85.7922 3.12721C85.7939 2.71886 85.8792 2.31512 86.043 1.94044C86.2068 1.56575 86.4457 1.22794 86.7451 0.947511C87.0517 0.631425 87.4228 0.383698 87.8335 0.220834C88.2442 0.057969 88.6852 -0.0162779 89.1271 0.00298011C90.0257 -0.014703 90.8996 0.295559 91.5825 0.874838C91.9014 1.15744 92.1548 1.505 92.3256 1.89376C92.4964 2.28252 92.5804 2.70327 92.5719 3.12721C92.5829 3.5515 92.4999 3.97303 92.329 4.36216C92.158 4.75128 91.9033 5.0986 91.5825 5.37964C90.9049 5.97205 90.0305 6.29549 89.1271 6.28786C88.6863 6.29822 88.2478 6.21983 87.8384 6.05748C87.429 5.89513 87.0571 5.65217 86.7451 5.34327C86.4446 5.05603 86.2053 4.71186 86.0416 4.33117C85.878 3.95048 85.7932 3.54104 85.7922 3.12721ZM86.5618 10.393H91.9855V31.3185H86.7084L86.5618 10.393Z" fill="#EEF5FF" style="fill:#EEF5FF;fill:color(display-p3 0.9333 0.9608 1.0000);fill-opacity:1;"/>
<path d="M97.8858 10.2477H103.163V13.5536C103.683 12.3792 104.552 11.3904 105.655 10.72C106.765 10.067 108.029 9.71608 109.32 9.70279C109.636 9.66511 109.956 9.66511 110.272 9.70279L111.225 9.92076V14.9705L109.906 14.6798C109.491 14.6448 109.075 14.6448 108.66 14.6798C107.753 14.6305 106.849 14.8076 106.029 15.1948C105.21 15.5819 104.501 16.1668 103.969 16.8959C103.592 17.4173 103.33 18.0114 103.2 18.6397C103.077 19.0661 103.004 19.5048 102.98 19.9475V31.1731H97.7026L97.8858 10.2477Z" fill="#EEF5FF" style="fill:#EEF5FF;fill:color(display-p3 0.9333 0.9608 1.0000);fill-opacity:1;"/>
<path d="M112.544 14.6798V10.2477H116.905V4.18079H122.182V10.2477H127.972V14.6798H122.182V23.8347C122.131 24.7087 122.335 25.5786 122.768 26.3414C123.054 26.672 123.417 26.9278 123.826 27.0862C124.235 27.2446 124.677 27.3007 125.114 27.2496C125.626 27.2821 126.14 27.2821 126.653 27.2496C127.122 27.1667 127.57 26.9939 127.972 26.741V31.1368C127.318 31.4163 126.627 31.5998 125.92 31.6817C125.212 31.7298 124.502 31.7298 123.794 31.6817C122.63 31.714 121.468 31.567 120.349 31.2458C119.528 30.9667 118.795 30.478 118.224 29.829C117.688 29.1532 117.335 28.3529 117.198 27.5039C116.979 26.4404 116.88 25.3559 116.905 24.2707V14.6798H112.544Z" fill="#EEF5FF" style="fill:#EEF5FF;fill:color(display-p3 0.9333 0.9608 1.0000);fill-opacity:1;"/>
<path d="M136.328 22.5269C136.448 23.9256 137.103 25.2258 138.161 26.1598C139.195 26.9995 140.489 27.4613 141.825 27.4676C142.979 27.5149 144.122 27.2378 145.123 26.6684C146.022 26.1214 146.827 25.4345 147.505 24.634L151.17 27.4676C150.081 28.8686 148.658 29.9796 147.029 30.7009C145.506 31.3236 143.875 31.6445 142.228 31.6454C140.704 31.6557 139.19 31.3974 137.757 30.8825C136.394 30.3869 135.147 29.6204 134.093 28.6301C133.031 27.6071 132.205 26.3675 131.674 24.9972C131.049 23.5772 130.737 22.0415 130.758 20.4925C130.728 18.9425 131.04 17.4049 131.674 15.9877C132.21 14.62 133.035 13.3814 134.093 12.3548C135.149 11.3758 136.396 10.6217 137.757 10.1387C139.188 9.6122 140.702 9.34159 142.228 9.33947C143.61 9.32208 144.981 9.5816 146.259 10.1024C147.451 10.6018 148.516 11.359 149.374 12.3185C150.304 13.3706 150.991 14.6101 151.39 15.9514C151.916 17.5199 152.164 19.1669 152.123 20.8194V22.2362L136.328 22.5269ZM147.139 18.6033C147.156 17.9341 147.038 17.2683 146.792 16.6446C146.547 16.0209 146.179 15.4519 145.71 14.9705C144.621 14.0517 143.217 13.5834 141.789 13.6626C140.431 13.6277 139.115 14.1236 138.124 15.0431C137.164 16.0304 136.57 17.311 136.438 18.676L147.139 18.6033Z" fill="#EEF5FF" style="fill:#EEF5FF;fill:color(display-p3 0.9333 0.9608 1.0000);fill-opacity:1;"/>
<path d="M162.787 19.9112L155.457 10.2477H161.871L166.122 16.5326L170.666 10.2477H176.712L169.383 19.9112L177.885 31.1731H171.435L165.938 23.6531L160.405 31.1731H154.285L162.787 19.9112Z" fill="#EEF5FF" style="fill:#EEF5FF;fill:color(display-p3 0.9333 0.9608 1.0000);fill-opacity:1;"/>
<path d="M180.963 28.1215C180.961 27.6738 181.051 27.2304 181.228 26.8183C181.404 26.4061 181.663 26.0337 181.989 25.7238C182.664 25.1111 183.547 24.7713 184.462 24.7713C185.378 24.7713 186.261 25.1111 186.936 25.7238C187.272 26.0123 187.541 26.3695 187.724 26.7709C187.908 27.1722 188.002 27.6082 187.999 28.0488C188.01 28.4978 187.923 28.9439 187.746 29.3573C187.57 29.7708 187.306 30.1421 186.973 30.4466C186.649 30.7751 186.261 31.0348 185.832 31.2097C185.404 31.3846 184.944 31.471 184.481 31.4638C183.572 31.4614 182.698 31.1248 182.025 30.5192C181.686 30.2181 181.415 29.8482 181.232 29.4346C181.048 29.021 180.957 28.5732 180.963 28.1215Z" fill="#CE7AF6" style="fill:#CE7AF6;fill:color(display-p3 0.8078 0.4784 0.9647);fill-opacity:1;"/>
</svg>
